# xmcd CD database file
#
# Track frame offsets:
#	150
#	13290
#	38745
#	76290
#	97923
#	114035
#	137259
#	166846
#	192799
#	224569
#	259891
#	286874
#
# Disc length: 4221 seconds
#
# Revision: 4
# Processed by: cddbd v1.5.1PL0 Copyright (c) Steve Scherf et al.
# Submitted via: CDex 1.50
#
DISCID=96107b0c
DTITLE=1 Giant Leap - 1 Giant Leap
DYEAR=2001
DGENRE=World Music
TTITLE0=Dunya Salam (featuring Baaba Maal)
TTITLE1=My Culture (featuring Robbie Williams and Maxi Jazz)
TTITLE2=The Way You Dream (featuring Michael Stipe and Asha Bhosle)
TTITLE3=Ma' Africa (featuring The Mahotella Queens and Ulali)
TTITLE4=Braided Hair (featuring Speech and Neneh Cherry)
TTITLE5=Ta Moko (featuring Whiri Mako Black)
TTITLE6=Bushes (featuring Baaba Maal)
TTITLE7=Passion (featuring Michael Franti)
TTITLE8=Daphne (featuring Eddi Reader, The Mahotella Queens and Revetti Sakalar)
TTITLE9=All Alone (On Eilean Shona)
TTITLE10=Racing Away (featuring Grant Lee Phillips and Horace Andy)
TTITLE11=Ghosts (featuring Eddi Reader)
EXTD=YEAR: 2001
EXTT0=
EXTT1=
EXTT2=
EXTT3=
EXTT4=
EXTT5=
EXTT6=
EXTT7=
EXTT8=
EXTT9=
EXTT10=
EXTT11=
PLAYORDER=
